<?xml version="1.0" encoding="UTF-8"?>
<!-- Generator: Adobe Illustrator 27.3.1, SVG Export Plug-In . SVG Version: 6.00 Build 0)  -->
<svg xmlns="http://www.w3.org/2000/svg" xmlns:xlink="http://www.w3.org/1999/xlink" version="1.1" id="Capa_1" x="0px" y="0px" viewBox="0 0 283.5 89.8" style="enable-background:new 0 0 283.5 89.8;" xml:space="preserve">
<style type="text/css">
	.st0{fill-rule:evenodd;clip-rule:evenodd;fill:#0060F1;}
	.st1{fill-rule:evenodd;clip-rule:evenodd;fill:#459EF4;}
	.st2{fill-rule:evenodd;clip-rule:evenodd;fill:#027BFF;}
	.st3{fill-rule:evenodd;clip-rule:evenodd;fill:#64BAFF;}
	.st4{fill-rule:evenodd;clip-rule:evenodd;fill:#9185F5;}
	.st5{fill-rule:evenodd;clip-rule:evenodd;fill:#A69DF7;}
	.st6{fill-rule:evenodd;clip-rule:evenodd;fill:#7D61FA;}
	.st7{fill-rule:evenodd;clip-rule:evenodd;fill:#0500FF;}
	.st8{fill-rule:evenodd;clip-rule:evenodd;fill:#0053FF;}
	.st9{fill-rule:evenodd;clip-rule:evenodd;fill:#062EFE;}
	.st10{fill-rule:evenodd;clip-rule:evenodd;fill:#6924F2;}
	.st11{fill:#FFFFFF;}
</style>
<g>
	<g>
		<path class="st0" d="M73.9,60.5L56.4,50.4v20.2L73.9,60.5z"></path>
		<path class="st1" d="M56.4,70.6L39,80.7V60.5L56.4,70.6z"></path>
		<path class="st2" d="M39,60.5l17.4-10.1v20.2L39,60.5z"></path>
		<path class="st3" d="M21.5,70.6L39,60.5v20.1L21.5,70.6z"></path>
		<path class="st4" d="M21.5,30.3L39,20.2v20.1L21.5,30.3z"></path>
		<path class="st5" d="M39,20.2L21.5,10.1v20.2L39,20.2z"></path>
		<path class="st6" d="M39,40.4L21.5,30.3v20.1L39,40.4z"></path>
		<path class="st7" d="M56.4,30.3L39,40.4l17.4,10.1V30.3z"></path>
		<path class="st8" d="M56.4,50.4l17.5-10.1v20.2L56.4,50.4z"></path>
		<path class="st9" d="M73.9,40.4L56.4,30.3v20.1L73.9,40.4z"></path>
		<path class="st10" d="M21.5,50.4L39,40.4v20.1L21.5,50.4z"></path>
	</g>
	<g>
		<path class="st11" d="M110.6,45c2.7,1.5,4,3.9,4,7c0,2.6-0.9,4.7-2.8,6.4c-1.8,1.7-4.1,2.5-6.8,2.5h-13V30.3h12.1    c2.6,0,4.8,0.8,6.6,2.4c0.9,0.8,1.6,1.7,2,2.8c0.5,1.1,0.7,2.2,0.7,3.4C113.5,41.4,112.5,43.5,110.6,45z M104.1,35.9h-6v6.7h6    c0.4,0,0.9-0.1,1.3-0.2c0.4-0.2,0.8-0.4,1.1-0.7c0.3-0.3,0.6-0.7,0.7-1.1c0.2-0.4,0.2-0.9,0.2-1.3c0-0.4-0.1-0.9-0.2-1.3    c-0.2-0.4-0.4-0.8-0.7-1.1c-0.3-0.3-0.7-0.6-1.1-0.7C105,36,104.6,35.9,104.1,35.9L104.1,35.9z M105.1,55.3c0.5,0,0.9-0.1,1.4-0.2    c0.4-0.2,0.8-0.4,1.2-0.8c0.3-0.3,0.6-0.8,0.8-1.2c0.2-0.5,0.3-0.9,0.2-1.4c0-0.5-0.1-0.9-0.2-1.4c-0.2-0.4-0.4-0.8-0.8-1.2    c-0.3-0.3-0.7-0.6-1.2-0.8c-0.4-0.2-0.9-0.3-1.4-0.3h-6.9v7.2H105.1z"></path>
		<path class="st11" d="M128.1,55.1H141v5.8H122V30.3h18.7v5.8h-12.7v6.5h11.6v5.7h-11.6V55.1z"></path>
		<path class="st11" d="M178.6,30.3v30.6h-6V41l-8.6,14.2h-0.7l-8.6-14.2v19.8h-6V30.3h6.2l8.8,14.5l8.7-14.5H178.6z"></path>
		<path class="st11" d="M213.6,56.9c-3.1,3.1-6.8,4.6-11.3,4.6c-4.4,0-8.2-1.5-11.3-4.6c-3.1-3.1-4.6-6.9-4.6-11.3    c0-4.5,1.5-8.2,4.6-11.3c3.1-3.1,6.8-4.6,11.3-4.6c4.4,0,8.2,1.5,11.3,4.6c3.1,3.1,4.6,6.8,4.6,11.3    C218.2,50,216.7,53.8,213.6,56.9z M195.3,52.8c1.9,1.9,4.2,2.8,7,2.8c2.8,0,5.1-0.9,7-2.8c1.9-1.9,2.8-4.3,2.8-7.2    s-0.9-5.3-2.8-7.2c-1.9-1.9-4.2-2.8-7-2.8c-1.3,0-2.6,0.2-3.8,0.7c-1.2,0.5-2.3,1.2-3.2,2.1c-1.9,1.9-2.8,4.3-2.8,7.2    S193.4,50.9,195.3,52.8L195.3,52.8z"></path>
		<path class="st11" d="M244.4,45c2.7,1.5,4,3.9,4,7c0,2.6-0.9,4.7-2.8,6.4c-1.8,1.7-4.1,2.5-6.8,2.5h-13V30.3H238    c2.6,0,4.8,0.8,6.6,2.4c1.8,1.6,2.7,3.7,2.7,6.2S246.4,43.5,244.4,45z M238,35.9h-6v6.7h6c0.4,0,0.9-0.1,1.3-0.2    c0.4-0.2,0.8-0.4,1.1-0.7c0.3-0.3,0.6-0.7,0.7-1.1c0.2-0.4,0.2-0.9,0.2-1.3c0-0.4-0.1-0.9-0.2-1.3c-0.2-0.4-0.4-0.8-0.7-1.1    c-0.3-0.3-0.7-0.6-1.1-0.7C238.9,36,238.5,35.9,238,35.9L238,35.9z M238.9,55.3c0.5,0,0.9-0.1,1.4-0.2c0.4-0.2,0.8-0.4,1.2-0.8    c0.3-0.3,0.6-0.8,0.8-1.2c0.2-0.5,0.3-0.9,0.2-1.4c0-0.5-0.1-0.9-0.2-1.4c-0.2-0.4-0.4-0.8-0.8-1.2c-0.3-0.3-0.7-0.6-1.2-0.8    c-0.4-0.2-0.9-0.3-1.4-0.3H232v7.2H238.9z"></path>
		<path class="st11" d="M255.9,30.3h6v30.6h-6V30.3z"></path>
	</g>
</g>
</svg>
