<svg width="52" height="70" viewBox="0 0 52 70" fill="none" xmlns="http://www.w3.org/2000/svg">
<path fill-rule="evenodd" clip-rule="evenodd" d="M51.7 49.8L34.4 39.8V59.7L51.7 49.8Z" fill="#0060F1"/>
<path fill-rule="evenodd" clip-rule="evenodd" d="M34.5 59.8L17.3 69.7V49.8L34.5 59.8Z" fill="#459EF4"/>
<path fill-rule="evenodd" clip-rule="evenodd" d="M17.2 49.8L34.4 39.8V59.7L17.2 49.8Z" fill="#027BFF"/>
<path fill-rule="evenodd" clip-rule="evenodd" d="M0 59.8L17.3 49.8V69.7L0 59.8Z" fill="#64BAFF"/>
<path fill-rule="evenodd" clip-rule="evenodd" d="M0 20L17.3 10V29.9L0 20Z" fill="#9185F5"/>
<path fill-rule="evenodd" clip-rule="evenodd" d="M17.2 10L0 0V20L17.2 10Z" fill="#A69DF7"/>
<path fill-rule="evenodd" clip-rule="evenodd" d="M17.2 29.9L0 20V39.9L17.2 29.9Z" fill="#7D61FA"/>
<path fill-rule="evenodd" clip-rule="evenodd" d="M34.5 20L17.3 30L34.5 39.9V20Z" fill="#0500FF"/>
<path fill-rule="evenodd" clip-rule="evenodd" d="M34.5 39.9L51.8 29.9V49.8L34.5 39.9Z" fill="#0053FF"/>
<path fill-rule="evenodd" clip-rule="evenodd" d="M51.7 29.9L34.5 20V39.9L51.7 29.9Z" fill="#062EFE"/>
<path fill-rule="evenodd" clip-rule="evenodd" d="M0 39.9L17.3 30V49.9L0 39.9Z" fill="#6924F2"/>
</svg>
